<?xml version="1.0" encoding="UTF-8"?>
<svg xmlns="http://www.w3.org/2000/svg" version="1.1" width="100" height="100" viewBox="0 0 100 100"><rect x="0" y="0" width="100" height="100" fill="#ffffff"/><g transform="scale(4)"><g transform="translate(0,0)"><path fill-rule="evenodd" d="M8 0L8 1L11 1L11 3L10 3L10 2L9 2L9 3L10 3L10 5L9 5L9 6L8 6L8 8L9 8L9 9L10 9L10 10L9 10L9 11L8 11L8 10L6 10L6 9L7 9L7 8L6 8L6 9L5 9L5 8L3 8L3 9L2 9L2 8L0 8L0 9L1 9L1 12L2 12L2 10L3 10L3 11L4 11L4 12L3 12L3 15L2 15L2 13L0 13L0 17L1 17L1 15L2 15L2 16L3 16L3 17L5 17L5 16L6 16L6 17L8 17L8 18L10 18L10 17L8 17L8 16L11 16L11 17L14 17L14 18L11 18L11 19L10 19L10 20L11 20L11 23L14 23L14 22L16 22L16 23L17 23L17 24L16 24L16 25L17 25L17 24L21 24L21 25L22 25L22 24L24 24L24 25L25 25L25 21L24 21L24 20L25 20L25 18L24 18L24 16L25 16L25 14L24 14L24 13L25 13L25 10L24 10L24 9L25 9L25 8L24 8L24 9L19 9L19 8L18 8L18 9L19 9L19 10L18 10L18 13L19 13L19 12L20 12L20 10L21 10L21 12L24 12L24 13L23 13L23 14L21 14L21 13L20 13L20 15L19 15L19 14L18 14L18 15L19 15L19 16L16 16L16 19L15 19L15 20L14 20L14 18L15 18L15 17L14 17L14 16L15 16L15 15L17 15L17 13L16 13L16 12L15 12L15 11L17 11L17 10L16 10L16 8L17 8L17 1L16 1L16 2L13 2L13 1L12 1L12 0ZM14 0L14 1L15 1L15 0ZM12 2L12 3L13 3L13 2ZM14 3L14 4L15 4L15 8L16 8L16 4L15 4L15 3ZM10 5L10 6L9 6L9 7L10 7L10 9L11 9L11 8L13 8L13 9L12 9L12 11L11 11L11 10L10 10L10 11L9 11L9 12L8 12L8 11L5 11L5 12L7 12L7 13L6 13L6 14L5 14L5 13L4 13L4 16L5 16L5 15L6 15L6 16L8 16L8 15L6 15L6 14L7 14L7 13L9 13L9 15L13 15L13 16L14 16L14 15L13 15L13 13L14 13L14 14L15 14L15 12L14 12L14 11L13 11L13 10L15 10L15 9L14 9L14 8L13 8L13 7L14 7L14 6L13 6L13 5L12 5L12 6L11 6L11 5ZM10 6L10 7L11 7L11 6ZM12 6L12 7L13 7L13 6ZM3 9L3 10L5 10L5 9ZM22 10L22 11L24 11L24 10ZM9 12L9 13L10 13L10 14L12 14L12 13L13 13L13 12L12 12L12 13L11 13L11 12ZM20 15L20 16L21 16L21 21L19 21L19 22L17 22L17 21L16 21L16 22L17 22L17 23L20 23L20 22L23 22L23 20L24 20L24 18L22 18L22 16L21 16L21 15ZM23 15L23 16L24 16L24 15ZM17 17L17 20L20 20L20 17ZM18 18L18 19L19 19L19 18ZM12 19L12 20L13 20L13 22L14 22L14 20L13 20L13 19ZM8 20L8 22L9 22L9 20ZM8 23L8 25L9 25L9 24L10 24L10 23ZM21 23L21 24L22 24L22 23ZM11 24L11 25L13 25L13 24ZM0 0L0 7L7 7L7 0ZM1 1L1 6L6 6L6 1ZM2 2L2 5L5 5L5 2ZM18 0L18 7L25 7L25 0ZM19 1L19 6L24 6L24 1ZM20 2L20 5L23 5L23 2ZM0 18L0 25L7 25L7 18ZM1 19L1 24L6 24L6 19ZM2 20L2 23L5 23L5 20Z" fill="#000000"/></g></g></svg>
